<svg width="50" height="50" viewBox="0 0 50 50" fill="none" xmlns="http://www.w3.org/2000/svg">
<g clip-path="url(#clip0)">
<path d="M49.1269 15.3593L44.9923 11.2247L48.1004 8.11779C48.3752 7.84328 48.5297 7.47131 48.5297 7.08224C48.5297 6.69318 48.3752 6.32121 48.1005 6.0466L43.9391 1.88526C43.3898 1.33594 42.4171 1.33594 41.8678 1.88526L38.7608 4.99337L34.6256 0.858011C33.4816 -0.286034 31.6266 -0.286034 30.4825 0.858011C29.3382 2.00206 29.3382 3.85704 30.4825 5.00118L44.9836 19.5025C46.1278 20.6465 47.9828 20.6465 49.1269 19.5025C50.2709 18.3584 50.2709 16.5035 49.1269 15.3593Z" fill="white"/>
<path d="M19.5176 44.9987L5.01652 30.4974C3.87228 29.3534 2.01749 29.3534 0.873247 30.4974C-0.270798 31.6417 -0.270798 33.4966 0.873247 34.6407L5.00851 38.776L1.90645 41.8767C1.63174 42.1515 1.47725 42.5233 1.47725 42.9124C1.47725 43.3015 1.63174 43.6734 1.90645 43.948L6.06779 48.108C6.35382 48.3942 6.72863 48.5373 7.10343 48.5373C7.47824 48.5373 7.85304 48.3942 8.13908 48.1081L11.2399 45.0073L15.3744 49.142C16.5185 50.286 18.3735 50.286 19.5176 49.142C20.6619 47.9978 20.6619 46.1428 19.5176 44.9987Z" fill="white"/>
<path d="M26.3392 17.4309L17.446 26.3543L23.6609 32.5692L32.5541 23.6456L26.3392 17.4309Z" fill="white"/>
<path d="M44.9837 23.6457L26.3392 5.00118C25.1952 3.85714 23.3401 3.85714 22.196 5.00118C21.0518 6.14542 21.0518 8.00021 22.196 9.14445L40.8405 27.7889C41.9846 28.933 43.8395 28.933 44.9837 27.7889C46.1279 26.6449 46.1279 24.7899 44.9837 23.6457Z" fill="white"/>
<path d="M27.8041 40.8555L9.15958 22.211C8.01553 21.0669 6.16055 21.0669 5.01651 22.211C3.87227 23.3552 3.87227 25.2102 5.01651 26.3543L23.661 44.9987C24.805 46.1428 26.66 46.1428 27.8041 44.9987C28.9484 43.8547 28.9484 41.9997 27.8041 40.8555Z" fill="white"/>
</g>
<defs>
<clipPath id="clip0">
<rect width="50" height="50" fill="white"/>
</clipPath>
</defs>
</svg>
