<svg width="50" height="50" viewBox="0 0 50 50" fill="none" xmlns="http://www.w3.org/2000/svg">
<g clip-path="url(#clip0)">
<path d="M49.2661 48.5323H44.5205V19.5206C44.5205 19.1153 44.192 18.7867 43.7866 18.7867H35.9589C35.5535 18.7867 35.225 19.1153 35.225 19.5206V48.5323H29.6478V28.1311C29.6478 27.7259 29.3192 27.3973 28.9139 27.3973H21.0861C20.6808 27.3973 20.3522 27.7259 20.3522 28.1311V48.5323H14.775V32.045C14.775 31.6397 14.4465 31.3111 14.0411 31.3111H6.21338C5.80801 31.3111 5.47949 31.6397 5.47949 32.045V48.5322H0.733887C0.328516 48.5322 0 48.8608 0 49.2661C0 49.6714 0.328516 50 0.733887 50H49.2661C49.6715 50 50 49.6714 50 49.2661C49.9999 48.8608 49.6715 48.5323 49.2661 48.5323ZM13.3072 48.5323H6.94717V32.7789H13.3072V48.5323ZM28.1801 48.5323H21.82V28.865H28.1801V48.5323ZM43.0528 48.5323H36.6928V20.2545H43.0528V48.5323Z" fill="white"/>
<path d="M47.657 0.575679C47.1624 0.139058 46.5041 -0.0643603 45.8498 0.0178663L39.5876 0.800679C38.3444 0.95605 37.4357 2.12294 37.5912 3.36738C37.7484 4.6249 38.8988 5.52109 40.158 5.36386L40.669 5.30009C32.9829 14.2118 23.8455 18.8175 17.3887 21.1321C9.3378 24.0184 3.07149 24.2652 3.01045 24.2673C1.74453 24.3068 0.745706 25.369 0.783987 26.6352C0.821878 27.8855 1.83096 28.8649 3.08145 28.8649C3.10469 28.8649 3.12803 28.8646 3.15196 28.8639C3.43057 28.8555 10.0732 28.6209 18.8247 25.5025C23.7444 23.7494 28.3737 21.4222 32.5838 18.5855C32.9199 18.3592 33.0088 17.9029 32.7822 17.5669C32.5559 17.2307 32.0998 17.1419 31.7636 17.3684C27.6554 20.1365 23.1363 22.4081 18.332 24.12C9.79561 27.1617 3.37647 27.3887 3.10801 27.3968L3.08145 27.3972C2.6295 27.3972 2.26465 27.043 2.25098 26.5907C2.23711 26.1327 2.59844 25.7485 3.05664 25.7342C3.12071 25.7321 9.56582 25.4956 17.884 22.5137C24.8526 20.0155 34.8657 14.9146 42.994 4.80097C43.3986 4.29746 42.9708 3.53291 42.3311 3.61308L39.9764 3.90742C39.5682 3.95791 39.1717 3.69043 39.0681 3.29179C38.9435 2.8121 39.2786 2.31835 39.7698 2.25683L46.0322 1.47402C46.5212 1.4122 46.9669 1.80742 46.9669 2.29931V8.56152C46.9669 9.02011 46.5939 9.39326 46.1352 9.39326C45.6765 9.39326 45.3034 9.02021 45.3034 8.56152V6.66308C45.3034 6.36318 45.1095 6.08271 44.829 5.97675C44.5393 5.86728 44.1969 5.95918 44.001 6.19902C41.2601 9.55752 38.1392 12.5966 34.7248 15.2317C34.404 15.4794 34.3445 15.9402 34.5922 16.2611C34.8399 16.582 35.3009 16.6413 35.6216 16.3937C38.5957 14.0983 41.3526 11.5045 43.8381 8.66513C43.8924 9.88515 44.902 10.8611 46.1353 10.8611C47.4031 10.8611 48.4347 9.82959 48.4347 8.56171V2.29951C48.4346 1.64033 48.1512 1.01191 47.657 0.575679Z" fill="white"/>
</g>
<defs>
<clipPath id="clip0">
<rect width="50" height="50" fill="white"/>
</clipPath>
</defs>
</svg>
