<svg width="50" height="50" viewBox="0 0 50 50" fill="none" xmlns="http://www.w3.org/2000/svg">
<g clip-path="url(#clip0)">
<path d="M25.0026 0C24.9119 0 24.8188 0.000762937 24.728 0.00152587C10.9451 0.152969 -0.146817 11.4895 0.0019561 25.2723C0.0740537 31.9392 2.74472 38.1854 7.52261 42.8607C12.2345 47.4711 18.4288 49.9999 24.9935 49.9999C25.0854 49.9999 25.1781 49.9995 25.2701 49.9983C31.9377 49.9262 38.1847 47.2556 42.8603 42.4781C47.5356 37.7002 50.0709 31.3975 49.9988 24.7302C49.8496 11.0366 38.6634 0 25.0026 0ZM9.57186 40.7668C5.3532 36.6389 2.99496 31.1252 2.93125 25.2406C2.80003 13.0725 12.5923 3.06472 24.76 2.9312C36.9281 2.80341 46.9367 12.593 47.0695 24.7619C47.1328 30.6468 44.8943 36.2105 40.7665 40.4288C36.6382 44.6475 31.1237 47.0053 25.2384 47.069C19.3527 47.1316 13.7901 44.8943 9.57186 40.7668Z" fill="white"/>
<path d="M25.0015 6.06577C24.9328 6.06577 24.8626 6.06615 24.7936 6.06691C14.3551 6.18173 5.95398 14.7674 6.06689 25.2059C6.12144 30.2558 8.14437 34.9864 11.7626 38.5272C15.3312 42.0192 20.0225 43.9342 24.9946 43.9342C25.064 43.9342 25.1346 43.9338 25.2044 43.933C30.2543 43.8785 34.9853 41.8559 38.5264 38.2373C42.0676 34.6191 43.9875 29.8454 43.933 24.7955C43.8201 14.4245 35.348 6.06577 25.0015 6.06577ZM13.8119 36.4333C10.7525 33.4399 9.04273 29.4414 8.99657 25.1743C8.90121 16.3509 16.0022 9.09348 24.8256 8.99659C33.6513 8.89931 40.9072 16.003 41.0037 24.8275C41.0495 29.0946 39.4263 33.1294 36.4326 36.1884C33.4388 39.2474 29.4402 40.9576 25.1727 41.0037C20.9026 41.0522 16.8708 39.4267 13.8119 36.4333Z" fill="white"/>
<path d="M24.7314 11.8065C22.0123 11.8065 19.5732 13.4239 18.5177 15.9267C18.203 16.6721 18.5524 17.5312 19.2978 17.8455C20.0432 18.1602 20.9026 17.8108 21.217 17.0654C21.8136 15.6506 23.1934 14.7362 24.7314 14.7362C26.8364 14.7362 28.5484 16.4478 28.5484 18.5516C28.5484 20.7077 27.4414 21.4977 25.909 22.591C24.3599 23.6961 22.4319 25.0717 22.4319 28.08V30.8758C22.4319 31.6849 23.0877 32.3406 23.8968 32.3406C24.7055 32.3406 25.3616 31.6849 25.3616 30.8758V28.08C25.3616 26.6472 26.1326 26.0303 27.6104 24.976C29.2427 23.8113 31.4781 22.2164 31.4781 18.5516C31.4781 14.8323 28.4515 11.8065 24.7314 11.8065Z" fill="white"/>
<path d="M25.4326 35.1139C25.4326 35.9478 24.7566 36.6238 23.9227 36.6238C23.0888 36.6238 22.4129 35.9478 22.4129 35.1139C22.4129 34.2796 23.0888 33.6037 23.9227 33.6037C24.7566 33.6037 25.4326 34.2796 25.4326 35.1139Z" fill="white"/>
</g>
<defs>
<clipPath id="clip0">
<rect width="50" height="50" fill="white"/>
</clipPath>
</defs>
</svg>
