<svg width="50" height="50" viewBox="0 0 50 50" fill="none" xmlns="http://www.w3.org/2000/svg">
<g clip-path="url(#clip0)">
<path d="M48.7145 36.8783L42.4988 30.6626C40.7851 28.949 37.9966 28.949 36.283 30.6626L33.4577 33.4879C32.1595 34.7861 30.047 34.7857 28.7492 33.4884L16.5031 21.2318C15.2018 19.9305 15.2016 17.8244 16.5031 16.5229C16.9582 16.0678 18.2649 14.7611 19.3284 13.6976C21.0346 11.9915 21.0584 9.21174 19.3267 7.48029L13.1127 1.28575C11.399 -0.427832 8.61061 -0.427832 6.90152 1.28125C5.62261 2.54903 5.21011 2.95801 4.63667 3.52647C-1.54303 9.70608 -1.54303 19.7611 4.63638 25.9405L24.0399 45.3542C30.2341 51.5485 40.2595 51.5489 46.4541 45.3542L48.7145 43.0939C50.4282 41.3803 50.4282 38.592 48.7145 36.8783ZM8.96891 3.35762C9.5401 2.78643 10.4694 2.78633 11.0424 3.35919L17.2565 9.55373C17.8291 10.1263 17.8291 11.053 17.2565 11.6256L16.2205 12.6616L7.93824 4.37931L8.96891 3.35762ZM26.1122 43.2826L6.70855 23.8687C1.92749 19.0876 1.66469 11.5803 5.90035 6.48527L14.1586 14.7435C11.9886 17.2034 12.0791 20.9517 14.4307 23.3034L26.6765 35.5594C26.6766 35.5595 26.6768 35.5596 26.6768 35.5597C29.026 37.909 32.7741 38.0053 35.237 35.8324L43.4954 44.0908C38.4166 48.3191 30.9262 48.0966 26.1122 43.2826ZM46.6427 41.0221L45.6067 42.0581L37.3191 33.7704L38.3549 32.7344C38.9262 32.1633 39.8556 32.1632 40.4269 32.7344L46.6426 38.9502C47.2139 39.5215 47.2139 40.451 46.6427 41.0221Z" fill="white"/>
</g>
<defs>
<clipPath id="clip0">
<rect width="50" height="50" fill="white"/>
</clipPath>
</defs>
</svg>
